#!OML:ASF X:\für Bonn\!DataBase\2005_08_12_Daniel\c3d\Daniel.ASF
:FULLY-SPECIFIED
:DEGREES
3249
root -8.81189 17.1306 13.5311 -185.092 22.5773 533.832
lowerback 13.052 3.18786 -5.67895
upperback 1.12142 3.53396 -4.82958
thorax -6.15381 1.99656 -2.58116
lowerneck 3.98132 10.3069 1.14956
upperneck 12.862 16.1539 -6.30919
head 4.2971 8.31324 -1.8025
rclavicle -1.94809e-014 -2.70347e-014
rhumerus -34.5549 -11.5611 -88.4784
rradius 17.4449
rwrist 28.3073
rhand -14.8198 17.2969
rfingers 7.12502
rthumb 11.3386 -12.3766
lclavicle -1.94809e-014 -2.70347e-014
lhumerus -57.7228 52.332 44.6843
lradius 19.6392
lwrist -38.7063
lhand -12.0526 -6.29366
lfingers 7.12502
lthumb 14.0063 23.2145
rfemur -2.86504 -9.94141 11.3224
rtibia 66.2364
rfoot 10.0496 6.07921
rtoes -10.8018
lfemur -23.6667 -6.29781 -33.2855
ltibia 44.2043
lfoot -16.6922 5.99879
ltoes -1.73956
3250
root -8.71049 17.1524 13.3758 -185.041 21.3733 533.975
lowerback 12.96 3.08146 -5.53962
upperback 1.16246 3.42667 -4.7926
thorax -6.05284 1.94039 -2.58991
lowerneck 4.04898 10.2906 1.20762
upperneck 12.7548 16.1263 -6.30729
head 4.2489 8.30849 -1.81964
rclavicle -6.49032e-014 3.89618e-014
rhumerus -34.588 -11.5619 -88.2944
rradius 17.3905
rwrist 29.3085
rhand -14.5298 17.3176
rfingers 7.12502
rthumb 11.6183 -12.3403
lclavicle -6.49032e-014 3.89618e-014
lhumerus -53.3961 49.858 50.4469
lradius 20.8864
lwrist -35.5584
lhand -11.7534 -6.38577
lfingers 7.12502
lthumb 14.2946 23.1022
rfemur -4.44743 -10.4733 11.4438
rtibia 67.5626
rfoot 8.73699 6.16917
rtoes -12.1186
lfemur -22.83 -6.61014 -33.205
ltibia 44.1885
lfoot -17.1224 4.98434
ltoes -1.5733
3251
root -8.60847 17.1743 13.2232 -185.002 20.1412 534.149
lowerback 12.9282 2.99563 -5.36648
upperback 1.18958 3.34434 -4.7548
thorax -5.99888 1.89577 -2.62676
lowerneck 4.18304 10.2558 1.26094
upperneck 12.5823 16.0507 -6.24842
head 4.15522 8.28274 -1.82601
rclavicle 6.75868e-015 7.95139e-015
rhumerus -34.7084 -11.6869 -88.064
rradius 17.4406
rwrist 30.2617
rhand -14.2742 17.2435
rfingers 7.12502
rthumb 11.8647 -12.4004
lclavicle 6.75868e-015 7.95139e-015
lhumerus -49.7021 47.1098 55.456
lradius 22.1226
lwrist -32.9095
lhand -11.3595 -6.5731
lfingers 7.12502
lthumb 14.6741 22.8876
rfemur -5.9666 -10.9171 11.6403
rtibia 68.6967
rfoot 7.4189 6.15784
rtoes -12.9206
lfemur -21.9862 -6.84436 -33.0966
ltibia 44.1575
lfoot -17.454 3.94507
ltoes -1.81533
3252
root -8.5071 17.1961 13.0724 -184.946 18.8895 534.297
lowerback 12.8667 2.90764 -5.19539
upperback 1.21905 3.26221 -4.7396
thorax -5.92496 1.85191 -2.68468
lowerneck 4.22728 10.1968 1.30769
upperneck 12.5041 15.9501 -6.14269
head 4.10557 8.24239 -1.80827
rclavicle 5.06901e-015 -1.90833e-014
rhumerus -34.8083 -11.6966 -87.9051
rradius 17.5589
rwrist 30.9426
rhand -14.058 17.1035
rfingers 7.12502
rthumb 12.0732 -12.5282
lclavicle 5.06901e-015 -1.90833e-014
lhumerus -46.5786 44.2508 59.78
lradius 23.408
lwrist -30.4449
lhand -10.9021 -6.86963
lfingers 7.12502
lthumb 15.1148 22.5585
rfemur -7.46553 -11.2663 11.8452
rtibia 69.6147
rfoot 6.10969 6.02961
rtoes -12.9816
lfemur -21.1834 -7.05734 -32.9911
ltibia 44.0918
lfoot -17.6529 2.90161
ltoes -2.11206
3253
root -8.40412 17.2158 12.9237 -184.88 17.6183 534.462
lowerback 12.8487 2.82946 -5.05628
upperback 1.18949 3.17617 -4.69047
thorax -5.94245 1.80539 -2.69441
lowerneck 4.38519 10.1199 1.31832
upperneck 12.3834 15.8186 -6.01023
head 4.01217 8.1912 -1.78604
rclavicle 2.90226e-014 1.82882e-014
rhumerus -35.0174 -11.743 -87.6636
rradius 17.7086
rwrist 31.3753
rhand -13.9189 17.0332
rfingers 7.12502
rthumb 12.2073 -12.5905
lclavicle 2.90226e-014 1.82882e-014
lhumerus -44.0973 41.1855 63.5002
lradius 24.7192
lwrist -28.2968
lhand -10.4718 -7.1324
lfingers 7.12502
lthumb 15.5293 22.264
rfemur -8.94176 -11.4951 12.1316
rtibia 70.3326
rfoot 4.77244 5.77982
rtoes -12.8928
lfemur -20.3965 -7.24604 -32.8423
ltibia 44.0151
lfoot -17.7827 1.827
ltoes -1.9842
3254
root -8.29952 17.2417 12.7729 -184.842 16.2824 534.621
lowerback 12.8282 2.72412 -4.98276
upperback 1.18443 3.04702 -4.59019
thorax -5.93907 1.73865 -2.60398
lowerneck 4.49179 10.0492 1.21323
upperneck 12.2789 15.6959 -5.87345
head 3.92407 8.13834 -1.74002
rclavicle 3.08116e-015 -3.65764e-014
rhumerus -35.209 -11.7839 -87.3418
rradius 17.8278
rwrist 31.6382
rhand -13.9189 16.883
rfingers 7.12502
rthumb 12.2073 -12.7408
lclavicle 3.08116e-015 -3.65764e-014
lhumerus -42.032 38.2541 66.7331
lradius 25.9648
lwrist -26.2049
lhand -10.1485 -7.45464
lfingers 7.12502
lthumb 15.8407 21.9173
rfemur -10.2826 -11.5849 12.4644
rtibia 70.7939
rfoot 3.51774 5.36484
rtoes -12.6226
lfemur -19.546 -7.52606 -32.6782
ltibia 43.8892
lfoot -17.919 0.787478
ltoes -1.87262
3255
root -8.19177 17.2666 12.6218 -184.84 14.8865 534.795
lowerback 12.8417 2.60222 -4.9128
upperback 1.18843 2.89483 -4.50018
thorax -5.94439 1.66155 -2.52022
lowerneck 4.53406 9.96083 1.19433
upperneck 12.2465 15.5539 -5.70315
head 3.87745 8.07706 -1.69093
rclavicle -4.8901e-014 6.04305e-014
rhumerus -35.3956 -12.0517 -86.9576
rradius 17.904
rwrist 31.7121
rhand -13.9468 16.7825
rfingers 7.12502
rthumb 12.1804 -12.8429
lclavicle -4.8901e-014 6.04305e-014
lhumerus -40.3524 35.3845 69.4361
lradius 27.2132
lwrist -24.4656
lhand -9.84611 -7.76462
lfingers 7.12502
lthumb 16.1318 21.584
rfemur -11.509 -11.5549 12.8644
rtibia 71.0249
rfoot 2.2791 4.83206
rtoes -12.3662
lfemur -18.6465 -7.86926 -32.4784
ltibia 43.737
lfoot -18.0242 -0.248196
ltoes -1.81838
3256
root -8.07978 17.2926 12.4693 -184.794 13.4121 535
lowerback 12.7978 2.4836 -4.82318
upperback 1.19608 2.75391 -4.40282
thorax -5.9132 1.58889 -2.43799
lowerneck 4.50042 9.84753 1.1017
upperneck 12.2464 15.3697 -5.46905
head 3.84141 7.99094 -1.60548
rclavicle 1.13307e-014 3.18055e-015
rhumerus -35.6349 -12.1019 -86.698
rradius 18.0612
rwrist 31.119
rhand -14.1419 16.6973
rfingers 7.12502
rthumb 11.9923 -12.9391
lclavicle 1.13307e-014 3.18055e-015
lhumerus -38.9497 32.6202 71.8179
lradius 28.4879
lwrist -23.0217
lhand -9.72565 -8.07517
lfingers 7.12502
lthumb 16.2478 21.264
rfemur -12.6865 -11.364 13.3666
rtibia 71.0257
rfoot 1.00998 4.09358
rtoes -12.1282
lfemur -17.7601 -8.31392 -32.2285
ltibia 43.5373
lfoot -18.0993 -1.18309
ltoes -1.8518
3257
root -7.97124 17.3218 12.3142 -184.76 11.8277 535.181
lowerback 12.7698 2.3237 -4.73523
upperback 1.1794 2.55283 -4.29344
thorax -5.91749 1.48609 -2.3336
lowerneck 4.56427 9.73762 1.02431
upperneck 12.2185 15.2011 -5.28633
head 3.7861 7.91684 -1.5452
rclavicle 2.45499e-014 -7.87187e-014
rhumerus -35.9663 -12.284 -86.3257
rradius 18.1345
rwrist 30.3074
rhand -14.5333 16.7169
rfingers 7.12502
rthumb 11.6149 -12.9412
lclavicle 2.45499e-014 -7.87187e-014
lhumerus -37.9277 30.0673 73.852
lradius 29.8638
lwrist -21.7709
lhand -9.66383 -8.38878
lfingers 7.12502
lthumb 16.3073 20.9455
rfemur -13.7936 -11.1289 13.7802
rtibia 70.8264
rfoot -0.236207 3.19191
rtoes -11.7832
lfemur -16.8618 -8.90929 -32.0114
ltibia 43.305
lfoot -18.1063 -2.1243
ltoes -1.57417
